<svg xmlns="http://www.w3.org/2000/svg" xmlns:svg="http://www.w3.org/2000/svg" id="svg1235" width="74.408" height="48.894" version="1.1" viewBox="0 0 19.687 12.937"><metadata id="metadata1232"/><g id="layer1" transform="translate(-97.101672,-137.99785)"><g id="layer1-6" transform="matrix(0.27343282,0,0,0.27343282,92.179881,78.021988)" style="fill:#fff"><g id="g859" transform="matrix(0.83916082,0,0,0.83916082,12.041958,35.685323)" style="fill:#fff"><g id="g1121" transform="translate(3.2152557e-6)" style="fill:#fff;fill-opacity:1"><path id="path882" d="m 31.640001,233.65342 c -1.329606,0 -2.4,1.0704 -2.4,2.4 v 7.2 c 0,1.3296 1.070394,2.4 2.4,2.4 H 32.84 v -4.8 h 4.8 v 4.8 h 1.200001 c 1.329602,0 2.4,-1.0704 2.4,-2.4 v -7.2 c 0,-1.3296 -1.070398,-2.4 -2.4,-2.4 z m 2.170898,2.4 h 2.857719 c 0.538007,0 0.971382,0.50524 0.971382,1.13296 v 0.0666 0.067 1.13344 H 36.668618 33.810899 32.84 v -1.13344 -0.067 -0.0666 c 0,-0.62771 0.432893,-1.13296 0.970899,-1.13296 z" style="opacity:1;fill:#fff;fill-opacity:1;stroke:none;stroke-width:.13924624;stroke-linecap:round;stroke-linejoin:round;stroke-miterlimit:4;stroke-dasharray:none;stroke-opacity:1;paint-order:markers stroke fill"/><path id="path884" d="m 46.399996,233.65341 c -1.329606,0 -2.4,1.0704 -2.4,2.4 v 4.80001 h 6.968971 1.431028 v 1.13345 0.0666 0.067 c 0,0.62772 -0.638169,1.13295 -1.431028,1.13295 h -6.968971 c 0,1.3296 1.070394,2.4 2.4,2.4 h 7.2 c 1.329603,0 2.4,-1.0704 2.4,-2.4 v -4.8 h -6.968972 -1.43103 v -1.13345 -0.067 -0.067 c 0,-0.62772 0.638169,-1.13248 1.43103,-1.13248 h 6.968972 c 0,-1.32959 -1.070397,-2.39999 -2.4,-2.39999 z" style="opacity:1;fill:#fff;fill-opacity:1;stroke:none;stroke-width:.13924626;stroke-linecap:round;stroke-linejoin:round;stroke-miterlimit:4;stroke-dasharray:none;stroke-opacity:1;paint-order:markers stroke fill"/><path id="path886" d="m 60.559994,233.65342 c -0.997205,0 -1.8,0.8028 -1.8,1.80001 v 8.39998 c 0,0.99722 0.802795,1.80001 1.8,1.80001 h 1.799999 v -2.39999 -2.4 h 2.4 c 1.329605,0 2.4,1.0704 2.4,2.4 v 2.39999 h 1.800002 c 0.997195,0 1.799999,-0.80279 1.799999,-1.80001 v -0.59999 -0.96078 -0.23922 c 0,-1.32961 -1.069915,-2.4 -2.399518,-2.4 1.329603,0 2.399518,-1.06993 2.399518,-2.39952 v -0.3492 -0.85128 -0.6 c 0,-0.9972 -0.802804,-1.8 -1.799999,-1.8 h -1.800002 v 2.4 c 0,1.3296 -1.070395,2.4 -2.4,2.4 h -2.4 v -2.4 -2.4 z" style="opacity:1;fill:#fff;fill-opacity:1;stroke:none;stroke-width:.13924626;stroke-linecap:round;stroke-linejoin:round;stroke-miterlimit:4;stroke-dasharray:none;stroke-opacity:1;paint-order:markers stroke fill"/></g><g id="g1116" style="fill:#fff;fill-opacity:1"><rect id="rect854" width="12" height="12" x="14.48" y="233.653" rx="2.4" style="opacity:1;fill:#fff;fill-opacity:1;stroke:none;stroke-width:.13924573;stroke-linecap:round;stroke-linejoin:round;stroke-miterlimit:4;stroke-dasharray:none;stroke-opacity:1;paint-order:markers stroke fill"/><rect id="rect862" width="12" height="12" x="73.52" y="233.653" rx="2.4" style="opacity:1;fill:#fff;fill-opacity:1;stroke:none;stroke-width:.13924573;stroke-linecap:round;stroke-linejoin:round;stroke-miterlimit:4;stroke-dasharray:none;stroke-opacity:1;paint-order:markers stroke fill"/><rect id="rect866" width="12" height="12" x="66.14" y="218.86" rx="2.4" style="opacity:1;fill:#fff;fill-opacity:1;stroke:none;stroke-width:.13924573;stroke-linecap:round;stroke-linejoin:round;stroke-miterlimit:4;stroke-dasharray:none;stroke-opacity:1;paint-order:markers stroke fill"/><rect id="rect868" width="12" height="12" x="7.1" y="218.86" rx="2.4" style="opacity:1;fill:#fff;fill-opacity:1;stroke:none;stroke-width:.13924573;stroke-linecap:round;stroke-linejoin:round;stroke-miterlimit:4;stroke-dasharray:none;stroke-opacity:1;paint-order:markers stroke fill"/><rect style="opacity:1;fill:#fff;fill-opacity:1;stroke:none;stroke-width:.13924573;stroke-linecap:round;stroke-linejoin:round;stroke-miterlimit:4;stroke-dasharray:none;stroke-opacity:1;paint-order:markers stroke fill" id="rect870" width="12" height="12" x="21.86" y="218.86" rx="2.4"/><rect id="rect872" width="12" height="12" x="36.62" y="218.86" rx="2.4" style="opacity:1;fill:#fff;fill-opacity:1;stroke:none;stroke-width:.13924573;stroke-linecap:round;stroke-linejoin:round;stroke-miterlimit:4;stroke-dasharray:none;stroke-opacity:1;paint-order:markers stroke fill"/><rect style="opacity:1;fill:#fff;fill-opacity:1;stroke:none;stroke-width:.13924573;stroke-linecap:round;stroke-linejoin:round;stroke-miterlimit:4;stroke-dasharray:none;stroke-opacity:1;paint-order:markers stroke fill" id="rect874" width="12" height="12" x="51.38" y="218.86" rx="2.4"/><rect style="opacity:1;fill:#fff;fill-opacity:1;stroke:none;stroke-width:.13924573;stroke-linecap:round;stroke-linejoin:round;stroke-miterlimit:4;stroke-dasharray:none;stroke-opacity:1;paint-order:markers stroke fill" id="rect876" width="12" height="12" x="80.9" y="218.86" rx="2.4"/><rect style="opacity:1;fill:#fff;fill-opacity:1;stroke:none;stroke-width:.13924573;stroke-linecap:round;stroke-linejoin:round;stroke-miterlimit:4;stroke-dasharray:none;stroke-opacity:1;paint-order:markers stroke fill" id="rect852" width="12" height="12" x="66.14" y="248.447" rx="2.4"/><rect style="opacity:1;fill:#fff;fill-opacity:1;stroke:none;stroke-width:.13924573;stroke-linecap:round;stroke-linejoin:round;stroke-miterlimit:4;stroke-dasharray:none;stroke-opacity:1;paint-order:markers stroke fill" id="rect856" width="12" height="12" x="7.1" y="248.447" rx="2.4"/><rect id="rect858" width="12" height="12" x="21.86" y="248.447" rx="2.4" style="opacity:1;fill:#fff;fill-opacity:1;stroke:none;stroke-width:.13924573;stroke-linecap:round;stroke-linejoin:round;stroke-miterlimit:4;stroke-dasharray:none;stroke-opacity:1;paint-order:markers stroke fill"/><rect style="opacity:1;fill:#fff;fill-opacity:1;stroke:none;stroke-width:.13924573;stroke-linecap:round;stroke-linejoin:round;stroke-miterlimit:4;stroke-dasharray:none;stroke-opacity:1;paint-order:markers stroke fill" id="rect860" width="12" height="12" x="36.62" y="248.447" rx="2.4"/><rect id="rect864" width="12" height="12" x="51.38" y="248.447" rx="2.4" style="opacity:1;fill:#fff;fill-opacity:1;stroke:none;stroke-width:.13924573;stroke-linecap:round;stroke-linejoin:round;stroke-miterlimit:4;stroke-dasharray:none;stroke-opacity:1;paint-order:markers stroke fill"/><rect id="rect878" width="12" height="12" x="80.9" y="248.447" rx="2.4" style="opacity:1;fill:#fff;fill-opacity:1;stroke:none;stroke-width:.13924573;stroke-linecap:round;stroke-linejoin:round;stroke-miterlimit:4;stroke-dasharray:none;stroke-opacity:1;paint-order:markers stroke fill"/><rect style="opacity:1;fill:#fff;fill-opacity:1;stroke:none;stroke-width:.13924573;stroke-linecap:round;stroke-linejoin:round;stroke-miterlimit:4;stroke-dasharray:none;stroke-opacity:1;paint-order:markers stroke fill" id="rect1585" width="12" height="12" x="14.48" y="263.24" rx="2.4"/><rect style="opacity:1;fill:#fff;fill-opacity:1;stroke:none;stroke-width:.25675645;stroke-linecap:round;stroke-linejoin:round;stroke-miterlimit:4;stroke-dasharray:none;stroke-opacity:1;paint-order:markers stroke fill" id="rect888" width="40.8" height="12" x="29.6" y="263.24" rx="2.4"/><rect id="rect1657" width="12" height="12" x="73.52" y="263.24" rx="2.4" style="opacity:1;fill:#fff;fill-opacity:1;stroke:none;stroke-width:.13924573;stroke-linecap:round;stroke-linejoin:round;stroke-miterlimit:4;stroke-dasharray:none;stroke-opacity:1;paint-order:markers stroke fill"/></g></g></g></g></svg>